<svg xmlns="http://www.w3.org/2000/svg" viewBox="0 0 1200 630" font-family="Segoe UI, Helvetica Neue, Arial, sans-serif">
  <defs>
    <radialGradient id="bg" cx="0.72" cy="0.14" r="1.15"><stop offset="0" stop-color="#2E66EC"/><stop offset="0.4" stop-color="#0F3EB6"/><stop offset="0.75" stop-color="#08236E"/><stop offset="1" stop-color="#030F38"/></radialGradient>
    <linearGradient id="ptop" x1="0" y1="0" x2="0" y2="1"><stop offset="0" stop-color="#FFFFFF" stop-opacity="0.16"/><stop offset="1" stop-color="#FFFFFF" stop-opacity="0"/></linearGradient>
    <linearGradient id="herofill" x1="0" y1="0" x2="0.35" y2="1"><stop offset="0" stop-color="#F2F8FF"/><stop offset="1" stop-color="#BFD8FF"/></linearGradient>
    <radialGradient id="vig" cx="0.55" cy="0.34" r="0.9"><stop offset="0.5" stop-color="#030F34" stop-opacity="0"/><stop offset="1" stop-color="#02081E" stop-opacity="0.6"/></radialGradient>
    <filter id="soft" x="-80%" y="-80%" width="260%" height="260%"><feGaussianBlur stdDeviation="52"/></filter>
    <filter id="psh" x="-40%" y="-40%" width="180%" height="200%"><feDropShadow dx="0" dy="20" stdDeviation="28" flood-color="#020A26" flood-opacity="0.5"/></filter>
  </defs>
<rect width="1200" height="630" fill="url(#bg)"/>
<line x1="-680" y1="660" x2="814" y2="201" stroke="#6E93DE" stroke-opacity="0.11" stroke-width="1"/><line x1="-520" y1="660" x2="830" y2="201" stroke="#6E93DE" stroke-opacity="0.11" stroke-width="1"/><line x1="-360" y1="660" x2="846" y2="201" stroke="#6E93DE" stroke-opacity="0.11" stroke-width="1"/><line x1="-200" y1="660" x2="862" y2="201" stroke="#6E93DE" stroke-opacity="0.11" stroke-width="1"/><line x1="-40" y1="660" x2="878" y2="201" stroke="#6E93DE" stroke-opacity="0.11" stroke-width="1"/><line x1="120" y1="660" x2="894" y2="201" stroke="#6E93DE" stroke-opacity="0.11" stroke-width="1"/><line x1="280" y1="660" x2="910" y2="201" stroke="#6E93DE" stroke-opacity="0.11" stroke-width="1"/><line x1="440" y1="660" x2="926" y2="201" stroke="#6E93DE" stroke-opacity="0.11" stroke-width="1"/><line x1="600" y1="660" x2="942" y2="201" stroke="#6E93DE" stroke-opacity="0.11" stroke-width="1"/><line x1="760" y1="660" x2="958" y2="201" stroke="#6E93DE" stroke-opacity="0.11" stroke-width="1"/><line x1="920" y1="660" x2="974" y2="201" stroke="#6E93DE" stroke-opacity="0.11" stroke-width="1"/><line x1="1080" y1="660" x2="990" y2="201" stroke="#6E93DE" stroke-opacity="0.11" stroke-width="1"/><line x1="1240" y1="660" x2="1006" y2="201" stroke="#6E93DE" stroke-opacity="0.11" stroke-width="1"/><line x1="1400" y1="660" x2="1022" y2="201" stroke="#6E93DE" stroke-opacity="0.11" stroke-width="1"/><line x1="1560" y1="660" x2="1038" y2="201" stroke="#6E93DE" stroke-opacity="0.11" stroke-width="1"/><line x1="1720" y1="660" x2="1054" y2="201" stroke="#6E93DE" stroke-opacity="0.11" stroke-width="1"/><line x1="1880" y1="660" x2="1070" y2="201" stroke="#6E93DE" stroke-opacity="0.11" stroke-width="1"/><line x1="2040" y1="660" x2="1086" y2="201" stroke="#6E93DE" stroke-opacity="0.11" stroke-width="1"/><line x1="-571" y1="594" x2="1869" y2="594" stroke="#6E93DE" stroke-opacity="0.09" stroke-width="1"/><line x1="-342" y1="529" x2="1738" y2="529" stroke="#6E93DE" stroke-opacity="0.09" stroke-width="1"/><line x1="-113" y1="463" x2="1607" y2="463" stroke="#6E93DE" stroke-opacity="0.09" stroke-width="1"/><line x1="115" y1="398" x2="1475" y2="398" stroke="#6E93DE" stroke-opacity="0.09" stroke-width="1"/><line x1="344" y1="332" x2="1344" y2="332" stroke="#6E93DE" stroke-opacity="0.09" stroke-width="1"/><line x1="573" y1="267" x2="1213" y2="267" stroke="#6E93DE" stroke-opacity="0.09" stroke-width="1"/>
<ellipse cx="1010" cy="80" rx="360" ry="360" fill="#8FB6FF" fill-opacity="0.42" filter="url(#soft)"/>
<ellipse cx="1010" cy="90" rx="150" ry="150" fill="#EAF3FF" fill-opacity="0.5" filter="url(#soft)"/>
<path d="M1010 80 L-21 694 L-38 665 Z" fill="#DCEBFF" opacity="0.12" filter="url(#soft)"/>
<path d="M1010 80 L-133 447 L-142 415 Z" fill="#DCEBFF" opacity="0.1" filter="url(#soft)"/>
<path d="M1010 80 L-186 180 L-188 147 Z" fill="#DCEBFF" opacity="0.13" filter="url(#soft)"/>
<path d="M1010 80 L-178 -91 L-172 -124 Z" fill="#DCEBFF" opacity="0.09" filter="url(#soft)"/>
<path d="M1010 80 L-109 -354 L-96 -385 Z" fill="#DCEBFF" opacity="0.11" filter="url(#soft)"/>
<path d="M1010 80 L17 -594 L37 -622 Z" fill="#DCEBFF" opacity="0.08" filter="url(#soft)"/>
<rect width="1200" height="630" fill="url(#vig)"/>
<g transform="rotate(-8 1020 250)" filter="url(#psh)"><rect x="870.0" y="100.0" width="300" height="300" rx="16" fill="#FFFFFF" fill-opacity="0.05"/><rect x="870.0" y="100.0" width="300" height="300" rx="16" fill="none" stroke="#BFD8FF" stroke-opacity="0.18" stroke-width="1.2"/><rect x="871.0" y="101.0" width="298" height="120" rx="15" fill="url(#ptop)"/></g>
<g transform="rotate(-8 950 288)" filter="url(#psh)"><rect x="780.0" y="123.0" width="340" height="330" rx="16" fill="#FFFFFF" fill-opacity="0.08"/><rect x="780.0" y="123.0" width="340" height="330" rx="16" fill="none" stroke="#BFD8FF" stroke-opacity="0.18" stroke-width="1.2"/><rect x="781.0" y="124.0" width="338" height="132" rx="15" fill="url(#ptop)"/></g>
<g transform="rotate(-8 880 322)" filter="url(#psh)"><rect x="690.0" y="144.0" width="380" height="356" rx="16" fill="#FFFFFF" fill-opacity="0.11"/><rect x="690.0" y="144.0" width="380" height="356" rx="16" fill="none" stroke="#BFD8FF" stroke-opacity="0.18" stroke-width="1.2"/><rect x="691.0" y="145.0" width="378" height="142" rx="15" fill="url(#ptop)"/></g>
<g transform="rotate(-8 300 372)" filter="url(#psh)"><rect x="140.0" y="171.0" width="320" height="402" rx="16" fill="#FFFFFF" fill-opacity="0.11"/><rect x="140.0" y="171.0" width="320" height="402" rx="16" fill="none" stroke="#BFD8FF" stroke-opacity="0.3" stroke-width="1.2"/><rect x="141.0" y="172.0" width="318" height="161" rx="15" fill="url(#ptop)"/><rect x="164" y="205" width="160" height="10" rx="3" fill="#FFFFFF" fill-opacity="0.85"/><rect x="164" y="231" width="272" height="6" rx="3" fill="#CFE0FF" fill-opacity="0.32"/><rect x="164" y="247" width="250" height="6" rx="3" fill="#CFE0FF" fill-opacity="0.28"/><rect x="164.0" y="271.0" width="109" height="72" rx="8" fill="#BFD8FF" fill-opacity="0.2" stroke="#BFD8FF" stroke-opacity="0.35" stroke-width="1"/><rect x="292" y="279" width="141" height="6" rx="3" fill="#CFE0FF" fill-opacity="0.26"/><rect x="292" y="295" width="141" height="6" rx="3" fill="#CFE0FF" fill-opacity="0.22"/><rect x="292" y="311" width="96" height="6" rx="3" fill="#CFE0FF" fill-opacity="0.18"/><rect x="164" y="420" width="250" height="6" rx="3" fill="#CFE0FF" fill-opacity="0.28"/><rect x="164" y="438" width="272" height="6" rx="3" fill="#CFE0FF" fill-opacity="0.24"/><rect x="164" y="456" width="230" height="6" rx="3" fill="#CFE0FF" fill-opacity="0.2"/></g>
<path d="M462 252 C 512 260, 545 232, 596 232" fill="none" stroke="#CFE4FF" stroke-opacity="0.13" stroke-width="1.6"/>
<path d="M462 288 C 512 296, 545 272, 596 272" fill="none" stroke="#CFE4FF" stroke-opacity="0.15" stroke-width="1.6"/>
<path d="M462 324 C 512 332, 545 312, 596 312" fill="none" stroke="#CFE4FF" stroke-opacity="0.17" stroke-width="1.6"/>
<path d="M462 360 C 512 368, 545 352, 596 352" fill="none" stroke="#CFE4FF" stroke-opacity="0.19" stroke-width="1.6"/>
<path d="M462 396 C 512 404, 545 392, 596 392" fill="none" stroke="#CFE4FF" stroke-opacity="0.21" stroke-width="1.6"/>
<path d="M462 432 C 512 440, 545 432, 596 432" fill="none" stroke="#CFE4FF" stroke-opacity="0.23" stroke-width="1.6"/>
<path d="M462 468 C 512 476, 545 472, 596 472" fill="none" stroke="#CFE4FF" stroke-opacity="0.25" stroke-width="1.6"/>
<path d="M462 320 C 512 320, 545 316, 596 316" fill="none" stroke="#EAF3FF" stroke-opacity="0.45" stroke-width="1.6"/>
<path d="M462 358 C 512 358, 545 360, 596 360" fill="none" stroke="#EAF3FF" stroke-opacity="0.45" stroke-width="1.6"/>
<path d="M462 396 C 512 396, 545 404, 596 404" fill="none" stroke="#EAF3FF" stroke-opacity="0.45" stroke-width="1.6"/>
<ellipse cx="760" cy="340" rx="320" ry="300" fill="#4A82F5" fill-opacity="0.36" filter="url(#soft)"/>
<ellipse cx="768" cy="380" rx="250" ry="180" fill="#12F5A2" fill-opacity="0.13" filter="url(#soft)"/>
<g transform="rotate(-8 760 338)" filter="url(#psh)"><rect x="542.0" y="125.0" width="436" height="426" rx="20" fill="none" stroke="#5FE6B0" stroke-opacity="0.45" stroke-width="4"/><rect x="545.0" y="128.0" width="430" height="420" rx="16" fill="url(#herofill)" fill-opacity="0.24"/><rect x="545.0" y="128.0" width="430" height="420" rx="16" fill="none" stroke="#8FF0C8" stroke-opacity="0.95" stroke-width="1.6"/><rect x="546.0" y="129.0" width="428" height="168" rx="15" fill="url(#ptop)"/><rect x="545.0" y="128.0" width="430" height="36" rx="16" fill="#FFFFFF" fill-opacity="0.08"/><circle cx="567.0" cy="146.0" r="4" fill="#BFD8FF" fill-opacity="0.7"/><circle cx="582.0" cy="146.0" r="4" fill="#BFD8FF" fill-opacity="0.7"/><circle cx="597.0" cy="146.0" r="4" fill="#BFD8FF" fill-opacity="0.7"/><circle cx="943.0" cy="146.0" r="11" fill="#12F5A2" fill-opacity="0.22"/><circle cx="943.0" cy="146.0" r="4.5" fill="#12F5A2"/><rect x="571" y="192" width="215" height="13" rx="3" fill="#FFFFFF" fill-opacity="1.0"/><rect x="567.0" y="216.0" width="120" height="9" rx="4.5" fill="#12F5A2" fill-opacity="0.2"/><rect x="571.0" y="218.0" width="108" height="5" rx="2.5" fill="#12F5A2"/><rect x="571.0" y="242.0" width="378" height="143" rx="10" fill="#BFD8FF" fill-opacity="0.16" stroke="#BFD8FF" stroke-opacity="0.3" stroke-width="1"/><rect x="571" y="405" width="360" height="6" rx="3" fill="#CFE0FF" fill-opacity="0.4"/><rect x="571" y="423" width="378" height="6" rx="3" fill="#CFE0FF" fill-opacity="0.32"/><rect x="571" y="441" width="320" height="6" rx="3" fill="#CFE0FF" fill-opacity="0.26"/></g>
<circle cx="968" cy="168" r="30" fill="#EAF6FF" fill-opacity="0.6" filter="url(#soft)"/>
<path d="M968 138 L973 164 L999 168 L973 172 L968 198 L963 172 L937 168 L963 164 Z" fill="#FFFFFF"/>
<path d="M968 150 L971 166 L987 168 L971 170 L968 186 L965 170 L949 168 L965 166 Z" fill="#EAF6FF"/>
</svg>
