<svg xmlns="http://www.w3.org/2000/svg" viewBox="0 0 1200 630" font-family="Segoe UI, Helvetica Neue, Arial, sans-serif">
  <defs>
    <radialGradient id="bg" cx="0.6" cy="0.16" r="1.05"><stop offset="0" stop-color="#2A62E6"/><stop offset="0.4" stop-color="#0E3EB8"/><stop offset="0.75" stop-color="#071F6E"/><stop offset="1" stop-color="#030F34"/></radialGradient>
    <linearGradient id="ptop" x1="0" y1="0" x2="0" y2="1"><stop offset="0" stop-color="#FFFFFF" stop-opacity="0.16"/><stop offset="1" stop-color="#FFFFFF" stop-opacity="0"/></linearGradient>
    <linearGradient id="herofill" x1="0" y1="0" x2="0.35" y2="1"><stop offset="0" stop-color="#F2F8FF"/><stop offset="1" stop-color="#BFD8FF"/></linearGradient>
    <radialGradient id="vig" cx="0.5" cy="0.34" r="0.85"><stop offset="0.5" stop-color="#030F34" stop-opacity="0"/><stop offset="1" stop-color="#030A22" stop-opacity="0.55"/></radialGradient>
    <filter id="soft" x="-80%" y="-80%" width="260%" height="260%"><feGaussianBlur stdDeviation="55"/></filter>
    <filter id="psh" x="-40%" y="-40%" width="180%" height="200%"><feDropShadow dx="0" dy="18" stdDeviation="26" flood-color="#020A28" flood-opacity="0.45"/></filter>
  </defs>
<rect width="1200" height="630" fill="url(#bg)"/>
<line x1="-410" y1="640" x2="493" y2="305" stroke="#6E93DE" stroke-opacity="0.12" stroke-width="1"/><line x1="-260" y1="640" x2="514" y2="305" stroke="#6E93DE" stroke-opacity="0.12" stroke-width="1"/><line x1="-110" y1="640" x2="535" y2="305" stroke="#6E93DE" stroke-opacity="0.12" stroke-width="1"/><line x1="40" y1="640" x2="556" y2="305" stroke="#6E93DE" stroke-opacity="0.12" stroke-width="1"/><line x1="190" y1="640" x2="577" y2="305" stroke="#6E93DE" stroke-opacity="0.12" stroke-width="1"/><line x1="340" y1="640" x2="598" y2="305" stroke="#6E93DE" stroke-opacity="0.12" stroke-width="1"/><line x1="490" y1="640" x2="619" y2="305" stroke="#6E93DE" stroke-opacity="0.12" stroke-width="1"/><line x1="640" y1="640" x2="640" y2="305" stroke="#6E93DE" stroke-opacity="0.12" stroke-width="1"/><line x1="790" y1="640" x2="661" y2="305" stroke="#6E93DE" stroke-opacity="0.12" stroke-width="1"/><line x1="940" y1="640" x2="682" y2="305" stroke="#6E93DE" stroke-opacity="0.12" stroke-width="1"/><line x1="1090" y1="640" x2="703" y2="305" stroke="#6E93DE" stroke-opacity="0.12" stroke-width="1"/><line x1="1240" y1="640" x2="724" y2="305" stroke="#6E93DE" stroke-opacity="0.12" stroke-width="1"/><line x1="1390" y1="640" x2="745" y2="305" stroke="#6E93DE" stroke-opacity="0.12" stroke-width="1"/><line x1="1540" y1="640" x2="766" y2="305" stroke="#6E93DE" stroke-opacity="0.12" stroke-width="1"/><line x1="1690" y1="640" x2="787" y2="305" stroke="#6E93DE" stroke-opacity="0.12" stroke-width="1"/><line x1="-325" y1="592" x2="1605" y2="592" stroke="#6E93DE" stroke-opacity="0.1" stroke-width="1"/><line x1="-190" y1="544" x2="1470" y2="544" stroke="#6E93DE" stroke-opacity="0.1" stroke-width="1"/><line x1="-55" y1="496" x2="1335" y2="496" stroke="#6E93DE" stroke-opacity="0.1" stroke-width="1"/><line x1="81" y1="448" x2="1199" y2="448" stroke="#6E93DE" stroke-opacity="0.1" stroke-width="1"/><line x1="216" y1="400" x2="1064" y2="400" stroke="#6E93DE" stroke-opacity="0.1" stroke-width="1"/><line x1="351" y1="353" x2="929" y2="353" stroke="#6E93DE" stroke-opacity="0.1" stroke-width="1"/>
<ellipse cx="740" cy="40" rx="560" ry="380" fill="#6E9CFF" fill-opacity="0.34" filter="url(#soft)"/>
<ellipse cx="900" cy="150" rx="230" ry="270" fill="#B4CFFF" fill-opacity="0.30" filter="url(#soft)"/>
<path d="M718 -40 L762 -40 L416 760 L256 760 Z" fill="#E4EFFF" opacity="0.11" filter="url(#soft)"/>
<path d="M718 -40 L762 -40 L616 760 L456 760 Z" fill="#E4EFFF" opacity="0.09" filter="url(#soft)"/>
<path d="M718 -40 L762 -40 L780 760 L620 760 Z" fill="#E4EFFF" opacity="0.12" filter="url(#soft)"/>
<path d="M718 -40 L762 -40 L940 760 L780 760 Z" fill="#E4EFFF" opacity="0.085" filter="url(#soft)"/>
<path d="M718 -40 L762 -40 L1127 760 L967 760 Z" fill="#E4EFFF" opacity="0.1" filter="url(#soft)"/>
<rect width="1200" height="630" fill="url(#vig)"/>
<g transform="rotate(-5 812 288)" filter="url(#psh)"><rect x="662.0" y="138.0" width="300" height="300" rx="16" fill="#FFFFFF" fill-opacity="0.07"/><rect x="662.0" y="138.0" width="300" height="300" rx="16" fill="none" stroke="#BFD8FF" stroke-opacity="0.3" stroke-width="1.25"/><rect x="663.0" y="139.0" width="298" height="120.0" rx="15" fill="url(#ptop)"/></g>
<g transform="rotate(-5 790 304)" filter="url(#psh)"><rect x="629.0" y="148.0" width="322" height="312" rx="16" fill="#FFFFFF" fill-opacity="0.1"/><rect x="629.0" y="148.0" width="322" height="312" rx="16" fill="none" stroke="#BFD8FF" stroke-opacity="0.3" stroke-width="1.25"/><rect x="630.0" y="149.0" width="320" height="124.80000000000001" rx="15" fill="url(#ptop)"/></g>
<g transform="rotate(-7 346 322)" filter="url(#psh)"><rect x="214.0" y="170.0" width="264" height="304" rx="16" fill="#FFFFFF" fill-opacity="0.1"/><rect x="214.0" y="170.0" width="264" height="304" rx="16" fill="none" stroke="#BFD8FF" stroke-opacity="0.3" stroke-width="1.25"/><rect x="215.0" y="171.0" width="262" height="121.60000000000001" rx="15" fill="url(#ptop)"/><rect x="238" y="204" width="150" height="10" rx="3" fill="#FFFFFF" fill-opacity="0.85"/><rect x="238" y="230" width="216" height="6" rx="3" fill="#CFE0FF" fill-opacity="0.35"/><rect x="238" y="246" width="194" height="6" rx="3" fill="#CFE0FF" fill-opacity="0.3"/><rect x="238.0" y="270.0" width="90" height="58" rx="8" fill="#BFD8FF" fill-opacity="0.22" stroke="#BFD8FF" stroke-opacity="0.4" stroke-width="1"/><rect x="342" y="274" width="104" height="6" rx="3" fill="#CFE0FF" fill-opacity="0.28"/><rect x="342" y="290" width="104" height="6" rx="3" fill="#CFE0FF" fill-opacity="0.24"/><rect x="342" y="306" width="74" height="6" rx="3" fill="#CFE0FF" fill-opacity="0.2"/><rect x="238" y="348" width="194" height="6" rx="3" fill="#CFE0FF" fill-opacity="0.3"/><rect x="238" y="366" width="216" height="6" rx="3" fill="#CFE0FF" fill-opacity="0.26"/><rect x="238" y="384" width="174" height="6" rx="3" fill="#CFE0FF" fill-opacity="0.22"/></g>
<ellipse cx="770" cy="320" rx="280" ry="250" fill="#4A82F5" fill-opacity="0.34" filter="url(#soft)"/>
<ellipse cx="778" cy="360" rx="210" ry="150" fill="#12F5A2" fill-opacity="0.12" filter="url(#soft)"/>
<g transform="rotate(-5 770 318)" filter="url(#psh)"><rect x="592.0" y="154.0" width="356" height="328" rx="19" fill="none" stroke="#5FE6B0" stroke-opacity="0.4" stroke-width="4"/><rect x="595.0" y="157.0" width="350" height="322" rx="16" fill="url(#herofill)" fill-opacity="0.22"/><rect x="595.0" y="157.0" width="350" height="322" rx="16" fill="none" stroke="#8FF0C8" stroke-opacity="0.9" stroke-width="1.5"/><rect x="596.0" y="158.0" width="348" height="128.8" rx="15" fill="url(#ptop)"/><rect x="595.0" y="157.0" width="350" height="36" rx="16" fill="#FFFFFF" fill-opacity="0.08"/><circle cx="617.0" cy="175.0" r="4" fill="#BFD8FF" fill-opacity="0.7"/><circle cx="632.0" cy="175.0" r="4" fill="#BFD8FF" fill-opacity="0.7"/><circle cx="647.0" cy="175.0" r="4" fill="#BFD8FF" fill-opacity="0.7"/><circle cx="913.0" cy="175.0" r="11" fill="#12F5A2" fill-opacity="0.22"/><circle cx="913.0" cy="175.0" r="4.5" fill="#12F5A2"/><rect x="621" y="223" width="190" height="12" rx="3" fill="#FFFFFF" fill-opacity="1.0"/><rect x="617.0" y="243.0" width="96" height="9" rx="4.5" fill="#12F5A2" fill-opacity="0.2"/><rect x="621.0" y="245.0" width="88" height="5" rx="2.5" fill="#12F5A2"/><rect x="621.0" y="269.0" width="298" height="120" rx="10" fill="#BFD8FF" fill-opacity="0.16" stroke="#BFD8FF" stroke-opacity="0.3" stroke-width="1"/><rect x="621" y="407" width="280" height="6" rx="3" fill="#CFE0FF" fill-opacity="0.4"/><rect x="621" y="425" width="298" height="6" rx="3" fill="#CFE0FF" fill-opacity="0.32"/><rect x="621" y="443" width="240" height="6" rx="3" fill="#CFE0FF" fill-opacity="0.26"/></g>
<circle cx="946" cy="188" r="26" fill="#EAF6FF" fill-opacity="0.55" filter="url(#soft)"/>
<path d="M946 162 L950 184 L972 188 L950 192 L946 214 L942 192 L920 188 L942 184 Z" fill="#FFFFFF"/>
<path d="M946 172 L948 186 L962 188 L948 190 L946 204 L944 190 L930 188 L944 186 Z" fill="#EAF6FF"/>
</svg>
